<?xml version="1.0" encoding="utf-8"?>
<!-- Generator: Adobe Illustrator 26.2.1, SVG Export Plug-In . SVG Version: 6.00 Build 0)  -->
<svg version="1.1" id="Layer_1" xmlns="http://www.w3.org/2000/svg" xmlns:xlink="http://www.w3.org/1999/xlink" x="0px" y="0px"
	 viewBox="0 0 280 441.7" style="enable-background:new 0 0 280 441.7;" xml:space="preserve">
<style type="text/css">
	.st0{fill:#8BCADA;}
	.st1{fill:#F4B887;}
	.st2{fill:#ED90BC;}
	.st3{fill:#C8E8F7;}
	.st4{fill:#B46F39;}
	.st5{fill:#EEC981;}
	.st6{fill:#B9713A;}
	.st7{fill:none;stroke:#010202;stroke-width:6;stroke-miterlimit:10;}
	.st8{fill:#592C10;}
	.st9{fill:#F2B78B;}
	.st10{fill:#BAB1AA;}
	.st11{fill:#F6C7A0;}
	.st12{fill:#FFFFFF;}
	.st13{fill:#F2AF7B;}
	.st14{clip-path:url(#SVGID_00000007406996319233403500000006660506265632265876_);fill:#010202;}
	.st15{clip-path:url(#SVGID_00000085947399571158484730000011529223494369317300_);fill:#010202;}
	.st16{fill:none;stroke:#E8AA8B;stroke-width:3;stroke-linecap:round;stroke-miterlimit:10;}
	.st17{clip-path:url(#SVGID_00000145742502501570267240000016508084923785950375_);fill:#592C10;}
	.st18{clip-path:url(#SVGID_00000138538454246996852150000002014382494509841065_);fill:#592C10;}
	.st19{fill:#B4B5B4;}
	.st20{fill:#646C68;}
</style>
<path class="st0" d="M-241.2,100"/>
<path class="st1" d="M47.6,59.7L47.6,59.7c-2.6,0-4.6-2-4.6-4.5V44.7c0-2.5,2-4.5,4.5-4.5h0.1c2.5,0,4.5,2,4.5,4.5v10.5
	C52.1,57.7,50.1,59.7,47.6,59.7z"/>
<path class="st2" d="M171.5,145.7c-4.4,6.6-3.5,6.4-8.4,12.7c-3.1,4-4.8,6.3-7.9,6.9c-1.8,0.4-3.6,0-5.7-1.1l0,0
	c-1-0.3-2-0.8-3.2-1.3c-1-0.5-4.4-2.1-9.5-6.2c-2.4-1.9-5-4.5-10.3-9.5c-1.2-1.1-2.5-2.4-4.8-4.6c-0.8-0.7-1.5-1.4-2.1-2l-2.5,31.3
	H55l-3.2-37.6c-0.4,0.6-0.7,1.3-1.4,1.7c-3.2,2.1-1.4,1-8.3,5.1c-9,5.4-7.7,5-12.4,7.5c-1.9,1-2.7,2.6-3.3,4.4
	c-0.4,1.3-0.1,2.6,1.3,5.2c3.5,6.9,8.4,10.1,7.4,12.8c-0.4,1.1-0.8,0.6-2.1,2c-2.7,2.7-4.7,3.1-8.5,6.2c-3.2,2.5-6.1,3.6-7.9,3.1
	c-1.4-0.4-2-2.1-2.9-4.4c-0.2-0.4-2-3.7-5.7-10.4c-4.5-8.2-6.7-9.2-7.7-14.4c-0.7-3.4-0.2-5.3,0-6c1-3.5,3.7-5.3,6.5-7.4
	c0,0,5.5-4.1,14.6-12.4c5-4.5,4.7-5,9.4-8.9c2.5-2.1,3.6-2.8,8.7-6.9c4.1-3.3,5.8-4.8,6.9-5.7c6.6-5.3,21.3-10.1,28.5-10.3H75h21.1
	l0.1,0.1l-0.1-0.1c3.4,0.6,7.8,1.8,12.8,3.9c1.8,0.8,6.2,2.9,11.4,6.7c3.6,2.7,4.3,3.8,12.5,12.3c9.3,9.6,14,14.4,15.1,15.3
	c1,0.8,1.9,1.5,2.7,2.1c2.6-3.6,4.9-6.4,6.4-8.1c0.7-1,2.6,0.8,4.7,1.7c2.5,1.1,3.1,1.8,5.7,2.9c1.9,0.8,3.1,1.6,5.3,3
	c1.8,1.1,2.1,1.3,2.1,1.6C175.1,139.1,173.4,142.8,171.5,145.7z"/>
<path class="st2" d="M49.9,180.7c0.9-1.4,1.4-1.5,2.5-3.1c1.9-3,2.3-5.3,2.4-6.7c0.4-5.4,11.4-5.6,15.1-5.9
	c28.2-2.3,43.5-2.9,45.4,2.1c0.1,0.4,0.8,2.4,2,5.4c0.9,2.2,1.4,3.3,2.1,4.6c1,1.7,1.5,2.3,2.1,3.1c2.6,3.6,4.4,11.9,0.9,8.6
	c-5.6-5.2-6.4,13-6.9,13.5c-10.9,11.2-30.5,7.1-58,1.5c-1.3-0.3-4.1-0.9-6.4-3.1c-3.6-3.5-3.7-8.7-3.7-10.6
	C47.5,188.4,47.5,184.3,49.9,180.7z"/>
<polygon class="st0" points="84.2,397.4 87.3,232 93.4,232.1 127.1,405 147.2,402.1 128.2,204 47,201.5 64,401.2 83,401.5 "/>
<polygon class="st3" points="60.2,389 87.4,389.5 87.2,404.8 59.9,405 "/>
<polygon class="st3" points="122.2,393 149.2,389.5 151.1,404.6 124.2,408.9 "/>
<polygon class="st4" points="47.4,188.9 46.8,202.1 128.1,204.5 127.4,188.9 "/>
<polygon class="st5" points="76.5,187.7 76.5,203.6 97.5,203.6 97.5,198.1 101.6,198.1 101.6,193.7 97.3,193.7 97.2,187.7 "/>
<polygon class="st6" points="89.7,193.7 93.1,193.7 93.1,190.1 80.8,190.1 80.8,201.2 93.1,201.2 93.1,198 89.6,198 "/>
<polygon class="st0" points="56.1,187.7 61.7,187.7 61.7,204.5 55.2,204.5 "/>
<polygon class="st0" points="112.7,187.7 118.3,187.7 118.3,204.5 111.8,204.5 "/>
<path class="st7" d="M124.2,60.7"/>
<path class="st8" d="M114.1,18.6c-0.6,0.5,5.6,6.5,4,10.3c-0.3,0.8-1.3,3.2-1.7,6.6c-0.4,4,0.6,4.8,0.3,8.1c-0.4,4.3-2.3,4.5-3,8.5
	c-0.4,2-2.3,1.5-0.1,12.1c0.8,3.7-2.1,6.8-0.1,10.2c0.8,1.3,5.7,4.7,6.2,6.7c0.4,1.7,1.9,5.5,4,7.2c2.4,2,5.1,3.3,8.3,4.4
	c2.2,0.8,5.9,6,6.2-0.3c0.1-1.3-0.4-4.4-0.7-7.6c-0.3-2.6-1-7.9,0.1-12.7c0.9-3.6,1.8-3,2.8-6.7c1.3-5.1,0.3-9.6-0.1-11.6
	c-1.4-6.2-3.8-7.2-3.2-11c0.5-3.3,2.3-3.2,2.9-6.6c0.8-4.6-0.9-9.7-2.4-12c-1.8-2.7-6.3-6.3-9.7-7.5
	C124.3,15.5,116.3,16.5,114.1,18.6z"/>
<path class="st1" d="M121.3,57.5L121.3,57.5c-2.6,0-4.6-2-4.6-4.5V42.4c0-2.5,2-4.5,4.5-4.5h0.1c2.5,0,4.5,2,4.5,4.5V53
	C125.8,55.4,123.8,57.5,121.3,57.5z"/>
<path class="st9" d="M84.8,111.7h-0.3c-6.8,0-12.3-5.5-12.3-12.3V86.1c0-6.8,5.5-12.3,12.3-12.3h0.3c6.8,0,12.3,5.5,12.3,12.3v13.3
	C97.1,106.1,91.6,111.7,84.8,111.7z"/>
<g>
	<g>
		<path class="st10" d="M121.3,56.5c0.8,0,0.8-1.2,0-1.2C120.5,55.2,120.5,56.5,121.3,56.5L121.3,56.5z"/>
	</g>
</g>
<g>
	<g>
		<path class="st10" d="M123.6,55.7c0.8,0,0.8-1.2,0-1.2C122.8,54.5,122.8,55.7,123.6,55.7L123.6,55.7z"/>
	</g>
</g>
<g>
	<g>
		<path class="st10" d="M124.6,42.3c0.8,0,0.8-1.2,0-1.2C123.8,41.1,123.8,42.3,124.6,42.3L124.6,42.3z"/>
	</g>
</g>
<g id="XMLID_00000029734718712041363330000016933490414899287439_">
	<path class="st8" d="M119.5,34.3v9.8c0-9.4-3.9-18-10.2-24.2c-6.1-6-14.4-9.8-23.6-10.1V0c9.2,0.2,17.5,4.1,23.6,10.1
		C115.5,16.3,119.5,24.9,119.5,34.3z"/>
	<path class="st8" d="M83.7,0v9.8C65,10.4,49.9,25.6,49.9,44.2v-9.8C49.9,15.8,65,0.5,83.7,0z"/>
	<path class="st11" d="M85.6,0v9.8c9.2,0.2,17.5,4.1,23.6,10.1c6.3,6.2,10.2,14.8,10.2,24.2v3.7v9.8c0,18.9-14.8,33.4-34.8,34.3
		C65.4,90,49.8,76.5,49.8,57.6v-9.8v-3.7c0-18.6,15.1-33.8,33.8-34.3V0c0.3,0,0.6,0,1,0S85.3,0,85.6,0z"/>
</g>
<path class="st12" d="M76.6,64.2"/>
<path class="st13" d="M84.7,62.4L84.7,62.4c-2.6,0-4.6-2-4.6-4.5V47.3c0-2.5,2-4.5,4.5-4.5h0.1c2.5,0,4.5,2,4.5,4.5v10.5
	C89.2,60.3,87.2,62.4,84.7,62.4z"/>
<g>
	<g id="_x3C_Mirror_Repeat_x3E__00000093860189364138603190000008802745456796620168_">
		<g>
			<g>
				<defs>
					<polygon id="SVGID_1_" points="59.6,35.1 59.6,35.1 72.6,35.1 72.6,45.4 59.6,45.4 					"/>
				</defs>
				<clipPath id="SVGID_00000145740224097461587280000005710884483749091456_">
					<use xlink:href="#SVGID_1_"  style="overflow:visible;"/>
				</clipPath>
				<path style="clip-path:url(#SVGID_00000145740224097461587280000005710884483749091456_);fill:#010202;" d="M72.6,40.2
					c0,2.9-2.4,5.2-5.3,5.2S62,43.1,62,40.2c0-0.5,0.1-0.9,0.2-1.3l-2-1.1c-0.5-0.3-0.7-1-0.4-1.5c0.2-0.4,0.6-0.6,1-0.6
					c0.2,0,0.4,0,0.6,0.2l1.9,1.1c1-1.1,2.4-1.9,4.1-1.9C70.3,35.1,72.6,37.4,72.6,40.2z"/>
			</g>
		</g>
	</g>
	<g id="_x3C_Mirror_Repeat_x3E__00000114055631023172020530000013271341371645047453_">
		<g>
			<g>
				<defs>
					<polygon id="SVGID_00000138534232683011011210000007100840216134570426_" points="109.7,35.1 109.7,35.1 96.7,35.1 96.7,45.4 
						109.7,45.4 					"/>
				</defs>
				<clipPath id="SVGID_00000091723901815207114030000011778163847658587788_">
					<use xlink:href="#SVGID_00000138534232683011011210000007100840216134570426_"  style="overflow:visible;"/>
				</clipPath>
				<path style="clip-path:url(#SVGID_00000091723901815207114030000011778163847658587788_);fill:#010202;" d="M96.7,40.2
					c0,2.9,2.4,5.2,5.3,5.2s5.3-2.3,5.3-5.2c0-0.5-0.1-0.9-0.2-1.3l2-1.1c0.5-0.3,0.7-1,0.4-1.5c-0.2-0.4-0.6-0.6-1-0.6
					c-0.2,0-0.4,0-0.6,0.2L106,37c-1-1.1-2.4-1.9-4.1-1.9C99.1,35.1,96.7,37.4,96.7,40.2z"/>
			</g>
		</g>
	</g>
</g>
<path class="st16" d="M70.6,60.5c0,6.2,6.3,11.2,14.1,11.2s14.1-5,14.1-11.2"/>
<g>
	<g id="_x3C_Mirror_Repeat_x3E__00000138572714773847750880000000142703113072143752_">
		<g>
			<g>
				<defs>
					<rect id="SVGID_00000044890271708193785710000007188530987611523990_" x="65.8" y="28.2" width="7.5" height="3.9"/>
				</defs>
				<clipPath id="SVGID_00000088839267738909523560000005236072641922917042_">
					<use xlink:href="#SVGID_00000044890271708193785710000007188530987611523990_"  style="overflow:visible;"/>
				</clipPath>
				<path style="clip-path:url(#SVGID_00000088839267738909523560000005236072641922917042_);fill:#592C10;" d="M71.3,32.1l-3.7-0.2
					c-1,0-1.9-0.9-1.8-1.9l0,0c0-1,0.9-1.8,2-1.8l3.7,0.2c1,0,1.9,0.9,1.8,1.9l0,0C73.3,31.3,72.4,32.1,71.3,32.1z"/>
			</g>
		</g>
	</g>
	<g id="_x3C_Mirror_Repeat_x3E__00000029025005476171433300000014441018247649388439_">
		<g>
			<g>
				<defs>
					<rect id="SVGID_00000072993569540259379090000002886790885185925820_" x="96.2" y="28.2" width="7.5" height="3.9"/>
				</defs>
				<clipPath id="SVGID_00000135690919164599819380000015929417105529148838_">
					<use xlink:href="#SVGID_00000072993569540259379090000002886790885185925820_"  style="overflow:visible;"/>
				</clipPath>
				<path style="clip-path:url(#SVGID_00000135690919164599819380000015929417105529148838_);fill:#592C10;" d="M98.2,32.1l3.7-0.2
					c1,0,1.9-0.9,1.8-1.9l0,0c0-1-0.9-1.8-2-1.8L98,28.3c-1,0-1.9,0.9-1.8,1.9l0,0C96.2,31.3,97.1,32.1,98.2,32.1z"/>
			</g>
		</g>
	</g>
</g>
<polygon class="st11" points="20.7,181.3 34,172 48.2,194.1 38.8,203.5 "/>
<path class="st11" d="M47.1,190.5c-4.5,1.5-6.6,5.3-7.2,6.3c-1,1.7-2.3,4-1.3,6.1c0.9,2.2,3.6,2.8,3.8,2.9c2.5,0.6,3.4-1.2,6.8-1.2
	c1.4,0,4,0,5.2,1.6c1.2,1.5,0.1,3.2,1.7,5.2c0.2,0.3,1.2,1.6,2.2,1.3c0.9-0.2,1.5-1.9,1.4-3.4c-0.2-2.4-0.8-3.4-2.5-5.8
	c-1-1.5-1.7-2.4-1.3-2.5c0.5-0.1,2.7,1.7,5.1,4.1c0.8,0.8,1.5,1.2,2.2,1.1c0.6-0.1,1-0.6,1.2-1.1c0.9-2.2-2.6-5.6-2.9-5.8
	c-2.3-2.2-4.5-2.7-4.3-3.1c0.1-0.3,0.9-0.4,5.2,0c2.7,0.2,3.8,1.2,4.8,0.4c0.7-0.5,1.1-1.5,0.8-2.2c-0.4-1-1.7-2-3.1-2.2
	c-6.9-1.4-4.5-0.8-8.3-1.3C51.5,190.2,48.9,189.9,47.1,190.5z"/>
<polygon class="st11" points="171.2,107.4 158.4,127.8 174,136.7 181.6,113.3 "/>
<polygon class="st19" points="253,47.7 237.2,117.1 237.2,117.1 236.7,119.1 96.6,119 96.6,111.9 137.3,112 150,47.7 "/>
<path class="st12" d="M197.5,76c-2.5-0.3-4-1-5.3-0.1c-2.1,1.4-3.5,6.6-2.8,8.8c0.5,1.5,1,3.6,3.7,4.9c0.8,0.4,2,0.5,5.8,0.4
	c2.7,0,4.1-0.5,4.8-1.1c1.2-0.9,3.2-3.1,1.8-2.9c-2.6,0.3-3.8-1.4-4.1-2.7c-0.3-1.2,2.3-3,4.3-2.6c1.7,0.3-1.7-4.5-3.2-5.1
	C200.9,74.8,200.9,76.4,197.5,76z"/>
<path class="st12" d="M198.3,75.3c-0.7-0.3-0.8-2.5,0.1-3.9c1.3-2,4.1-2.3,4.6-1.6C203.8,70.9,199.6,75.9,198.3,75.3z"/>
<g>
	<g>
		<path class="st10" d="M48.2,58.3c0.8,0,0.8-1.2,0-1.2S47.4,58.3,48.2,58.3L48.2,58.3z"/>
	</g>
</g>
<g>
	<g>
		<path class="st10" d="M45.7,57.7c0.8,0,0.8-1.2,0-1.2S44.9,57.7,45.7,57.7L45.7,57.7z"/>
	</g>
</g>
<g>
	<g>
		<path class="st10" d="M44.3,55.5c0.8,0,0.8-1.2,0-1.2S43.5,55.5,44.3,55.5L44.3,55.5z"/>
	</g>
</g>
<g>
	<g>
		<path class="st10" d="M44.1,48.5c0.8,0,0.8-1.2,0-1.2S43.3,48.5,44.1,48.5L44.1,48.5z"/>
	</g>
</g>
<path class="st11" d="M153.1,416.4c-0.2,1.2-1.8,1.8-3.2,2.3c-1.9,0.7-3.5,0.8-4.9,0.8c-2,0.1-3,0.1-4.2-0.2c-0.3-0.1-1.5-0.8-4-2.3
	c-0.2-0.1-1.5-0.9-2.9-2.1c-0.8-0.7-1.2-1.1-1.4-1.7c-0.1-0.4-0.1-0.8-0.1-1.1v-4.9l13.6-2l0.6,6c0.4,0.3,0.9,0.6,1.5,0.9
	c1.9,0.9,2.6,1.3,2.6,1.3c1,0.4,1.4,0.6,1.8,1.1C152.5,414.6,153.2,415.4,153.1,416.4z"/>
<path class="st20" d="M67.2,411.6c-3.2,1.1-5.5,1.9-8.5,3.5c-4.6,2.5-9.5,4.8-15.5,10.7c-3.6,3.5-3.6,6.4-3.5,9
	c0,0.5,0.1,2.3,1.4,3.5c0.6,0.6,1.4,0.9,3.2,1.2c3.1,0.5,5.6,0.1,6.1,0c5.4-0.9,6.7-1.5,8.2-2c1.9-0.6,4-0.8,12.1-5.9
	c0.9-0.6,6.3-3.9,12.3-8.7c1.1-0.9,2.8-2.3,3.8-4.7c0.3-0.8,1.3-3.4,0.2-5.9c-0.7-1.4-1.7-2.2-2.1-2.4
	C80.7,407.1,73.9,409.3,67.2,411.6z"/>
<path class="st11" d="M82.8,412.6c-0.1,0.5-0.4,1.2-1.1,2c-1.3,1.5-2.1,2.9-4.7,3.9c-3.7,1.5-4,0.9-5.8,1.2
	c-0.9,0.1-3.1,0.2-5.1-1.2c-0.5-0.3-2.2-1.5-2.5-3.5c-0.1-0.5-0.2-1.3,0.2-2.1c0.4-0.7,1.2-1,2.8-1.6c0.5-0.2,1-0.3,1.5-0.4
	l-0.6-6.4H82l-0.6,4.1c0.6,0.4,0.9,0.9,0.9,0.9C83.2,410.9,82.9,412.4,82.8,412.6z"/>
<path class="st20" d="M130.7,411.7c-1.2,0.6-1.9,1.1-2.3,2c-0.3,0.6-1.8,3.2-0.3,6.3c2.9,5.9,9.6,10.4,10.2,10.8
	c9.4,6.2,18.3,10.2,25.9,10.7c6.7,0.5,8.9,0.1,10.1-1.3c1.8-2,0.6-5.7,0.2-7c-0.7-2.3-2.7-7-22-18.6c-4.6-2.8-8.7-5.1-13.6-5
	C134.9,409.5,132.2,411,130.7,411.7z"/>
<path class="st11" d="M153.1,416.4c-0.2,1.2-1.8,1.8-3.2,2.3c-1.9,0.7-3.5,0.8-4.9,0.8c-2,0.1-3,0.1-4.2-0.2c-0.3-0.1-1.5-0.8-4-2.3
	c-0.2-0.1-1.5-0.9-2.9-2.1c-0.8-0.7-1.2-1.1-1.4-1.7c-0.1-0.4-0.1-0.8-0.1-1.1v-4.9l13.6-2l0.6,6c0.4,0.3,0.9,0.6,1.5,0.9
	c1.9,0.9,2.6,1.3,2.6,1.3c1,0.4,1.4,0.6,1.8,1.1C152.5,414.6,153.2,415.4,153.1,416.4z"/>
</svg>
