<?xml version="1.0" encoding="utf-8"?>
<!-- Generator: Adobe Illustrator 26.2.1, SVG Export Plug-In . SVG Version: 6.00 Build 0)  -->
<svg version="1.1" id="Capa_1" xmlns="http://www.w3.org/2000/svg" xmlns:xlink="http://www.w3.org/1999/xlink" x="0px" y="0px"
	 viewBox="0 0 512 512" style="enable-background:new 0 0 512 512;" xml:space="preserve">
<style type="text/css">
	.st0{fill:#58CDE1;}
	.st1{fill:#3E4347;}
	.st2{fill:#5A5F63;}
</style>
<circle class="st0" cx="256" cy="256" r="256"/>
<path class="st1" d="M256,420.5c-74.9,0-140.1-50.7-158.6-123.3c-1.5-5.7,2-11.5,7.7-13c5.7-1.5,11.5,2,13,7.7
	c16.1,63.1,72.8,107.2,138,107.2s121.8-44.1,138-107.2c1.4-5.7,7.2-9.2,13-7.7c5.7,1.5,9.2,7.3,7.7,13
	C396.1,369.8,330.9,420.5,256,420.5z"/>
<path class="st0" d="M512,256c0,141.4-114.6,256-256,256c-80.5,0-152.3-37.1-199.3-95.3c43.9,35.5,99.8,56.7,160.7,56.7
	c141.4,0,256-114.6,256-256c0-60.9-21.2-116.8-56.7-160.7C474.8,103.7,512,175.5,512,256z"/>
<ellipse class="st1" cx="173.3" cy="220.3" rx="39.2" ry="46.6"/>
<path class="st2" d="M191,210.3c-3.1,2.4-8.1,1.2-11.3-2.7s-3.4-9.1-0.3-11.5c3-2.5,8.1-1.3,11.3,2.6
	C193.9,202.6,194,207.8,191,210.3z"/>
<ellipse class="st1" cx="338.7" cy="220.3" rx="39.2" ry="46.6"/>
<path class="st2" d="M356.4,210.3c-3.1,2.4-8.1,1.2-11.3-2.7s-3.4-9.1-0.3-11.5c3-2.5,8.1-1.3,11.3,2.6
	C359.3,202.6,359.3,207.8,356.4,210.3z"/>
</svg>
