<?xml version="1.0" encoding="utf-8"?>
<!-- Generator: Adobe Illustrator 26.2.1, SVG Export Plug-In . SVG Version: 6.00 Build 0)  -->
<svg version="1.1" id="Layer_1" xmlns="http://www.w3.org/2000/svg" xmlns:xlink="http://www.w3.org/1999/xlink" x="0px" y="0px"
	 viewBox="0 0 1920 1080" style="enable-background:new 0 0 1920 1080;" xml:space="preserve">
<style type="text/css">
	.st0{fill:#58CDE0;}
	.st1{fill:#DEE0E0;}
	.st2{fill:#AAAAAA;}
	.st3{fill:#FFFFFF;stroke:#FFFFFF;stroke-width:3;stroke-miterlimit:10;}
	.st4{fill:#FFFFFF;}
	.st5{fill:#BC9B74;}
	.st6{fill:#6E4E2B;}
	.st7{fill:#313233;stroke:#FFFFFF;stroke-width:12;stroke-linejoin:round;stroke-miterlimit:10;}
	.st8{fill:#FFFFFF;stroke:#FFFFFF;stroke-width:14;stroke-linejoin:round;stroke-miterlimit:10;}
	.st9{fill:#454545;}
	.st10{fill:#CCCCCC;}
	.st11{fill:#292C2D;}
	.st12{fill:#57595B;}
	.st13{fill:#DCE0E0;}
	.st14{fill:#F8D983;}
	.st15{fill:#E5C67F;}
	.st16{clip-path:url(#SVGID_00000061440267561785536210000008500833707641408164_);fill:#FCC3F1;}
	.st17{fill:#697884;}
	.st18{fill:#EDF4F1;}
	.st19{fill:none;stroke:#ECB64B;stroke-width:6;stroke-miterlimit:10;}
	.st20{fill:none;stroke:#ECB64B;stroke-width:4;stroke-miterlimit:10;}
	.st21{fill:#F5FCF8;}
	.st22{fill:none;stroke:#ECB64B;stroke-width:5;stroke-miterlimit:10;}
	.st23{fill:#848789;}
</style>
<rect x="-82.9" y="-0.7" class="st0" width="2062.6" height="1114.8"/>
<g id="XMLID_00000035508977990695496960000016732449507682265224_">
	<path class="st1" d="M1216.1,725.4h0.6h10c1-5.7,1.4-11.7,1.4-17.6c0-21.7-6.5-42-17.5-58.6c-19.2-29.3-52.4-48.6-89.9-48.6
		c-59.3,0-107.4,48.2-107.4,107.4c0,16.5,3.8,32.1,10.3,46.1c17.2,36.3,54.3,61.3,97.1,61.3c48.4,0,89.2-32,102.8-76h-8.5
		c-0.4,0-1.3-0.1-1.7-0.3c-10.7,36.7-44.5,63.4-84.5,63.4c-2.5,0-4.7-0.1-7.2-0.4c-45.3-3.8-80.7-41.5-80.7-87.7
		c0-48.5,39.5-88,88-88s88,39.5,88,88C1216.8,718.2,1216.5,721.8,1216.1,725.4z"/>
	<path class="st2" d="M1210.8,649c-19.2-29.3-52.4-48.6-89.9-48.6c-59.3,0-107.4,48.2-107.4,107.4c0,16.5,3.8,32.1,10.3,46.1
		c-11.1-17-17.5-37-17.5-58.6c0-59.3,48.2-107.4,107.4-107.4C1156.6,587.5,1193.6,612.7,1210.8,649z"/>
	<path class="st2" d="M1213.3,739c-10.7,36.7-44.5,63.4-84.5,63.4c-2.5,0-4.7-0.1-7.2-0.4c-45.3-3.8-80.7-41.5-80.7-87.7
		c0-48.5,39.5-88,88-88s88,39.5,88,88c0,3.8-0.3,7.4-0.6,10.8h0.6h10c-0.7,4.7-1.8,9.3-3.2,13.9h-8.5
		C1214.4,739.3,1213.9,739.1,1213.3,739z"/>
</g>
<path class="st3" d="M1237.1,710h-46.8c-3.3,0-6-2.6-6-6v-4c0-3.3,2.6-6,6-6h46.8c3.3,0,6,2.6,6,6v4
	C1243,707.2,1240.4,710,1237.1,710z"/>
<circle class="st4" cx="1121.5" cy="701.5" r="82.9"/>
<circle class="st5" cx="1121.5" cy="701.5" r="71.1"/>
<path class="st6" d="M1098.4,652.3c-4.2-3.1-9.9-1.8-11.7-1.4c-12.4,2.6-19.3,17-21.8,22.5c-2.6,5.6-10.8,23.6-4.4,45.6
	c1.4,4.7,8.2,25.7,30,37c18.6,9.7,43.8,9.2,52.1,6.5c3.8-1.3,33.1-11,36.8-33.3c1.3-7.4-0.8-17.4-7.4-21.8
	c-6.9-4.7-12.9-5.7-19.7-10c-6.9-4.7-3.3-5.8-11-20.3c-3.9-7.4-8.2-15.6-16.1-17.4c-8.9-2.1-15.8,5.6-21.1,1.4
	C1101.2,658.7,1102.1,655.1,1098.4,652.3z"/>
<path class="st2" d="M1689,1111.7l-417-201.4c-11.7-5.7-16.6-20-10.8-31.6l111.7-231.3c5.7-11.7,20-16.6,31.6-10.8l416.9,201.3
	c11.7,5.7,16.6,20,10.8,31.6l-111.7,231.3C1714.9,1112.5,1700.9,1117.4,1689,1111.7z"/>
<polygon class="st7" points="1384.8,491.9 1376.7,597.6 1829.4,816.2 1909.5,745.5 "/>
<path class="st8" d="M1683.6,1077.1l-425.3-205.4c-6.1-2.8-8.5-10-5.5-16.1l107.5-222.4c2.8-6.1,10-8.5,16.1-5.5l425.1,205.4
	c6.1,2.8,8.5,10,5.5,16.1l-107.5,222.4C1696.7,1077.3,1689.4,1079.8,1683.6,1077.1z"/>
<polygon class="st9" points="1392.2,504.3 1384.9,592.8 1894.2,746.8 "/>
<path class="st10" d="M1535.7,1001.3l-143.1-69c-5.5-2.7-8-9.5-5.1-15l32-66.2c2.7-5.5,9.5-8,15-5.1l143.1,69c5.5,2.7,8,9.5,5.1,15
	l-32,66.2C1548,1001.4,1541.3,1003.8,1535.7,1001.3z"/>
<path class="st11" d="M1411.7,688.7l-15.3-7.3c-1.9-0.9-2.7-3.3-1.6-5.1l4.5-9.5c0.9-1.9,3.3-2.7,5.1-1.6l15.3,7.3
	c1.9,0.9,2.7,3.3,1.6,5.1l-4.5,9.5C1415.9,688.8,1413.7,689.6,1411.7,688.7z"/>
<path class="st11" d="M1433.3,699.1L1423,694c-1.6-0.8-2.4-2.8-1.5-4.3l5.1-10.4c0.8-1.6,2.8-2.4,4.3-1.5l10.4,5.1
	c1.6,0.8,2.4,2.8,1.5,4.3l-5.1,10.4C1436.9,699.2,1435,699.9,1433.3,699.1z"/>
<path class="st11" d="M1455.4,709.9l-10.4-5.1c-1.6-0.8-2.4-2.8-1.5-4.3l5.1-10.4c0.8-1.6,2.8-2.4,4.3-1.5l10.4,5.1
	c1.6,0.8,2.4,2.8,1.5,4.3l-5.1,10.4C1459.2,710,1457,710.6,1455.4,709.9z"/>
<path class="st11" d="M1478.6,721.1l-10.4-5.1c-1.6-0.8-2.4-2.8-1.5-4.3l5.1-10.4c0.8-1.6,2.8-2.4,4.3-1.5l10.4,5.1
	c1.6,0.8,2.4,2.8,1.5,4.3l-5.1,10.4C1482.4,721.3,1480.3,721.9,1478.6,721.1z"/>
<path class="st11" d="M1501,731.9l-10.4-5.1c-1.6-0.8-2.4-2.8-1.5-4.3l5.1-10.4c0.8-1.6,2.8-2.4,4.3-1.5l10.4,5.1
	c1.6,0.8,2.4,2.8,1.5,4.3l-5.1,10.4C1504.7,731.9,1502.7,732.7,1501,731.9z"/>
<path class="st11" d="M1523.2,742.6l-10.4-5.1c-1.6-0.8-2.4-2.8-1.5-4.3l5.1-10.4c0.8-1.6,2.8-2.4,4.3-1.5l10.4,5.1
	c1.6,0.8,2.4,2.8,1.5,4.3l-5.1,10.4C1526.8,742.6,1524.8,743.4,1523.2,742.6z"/>
<path class="st11" d="M1546.7,753.8l-10.4-5.1c-1.6-0.8-2.4-2.8-1.5-4.3l5.1-10.4c0.8-1.6,2.8-2.4,4.3-1.5l10.4,5.1
	c1.6,0.8,2.4,2.8,1.5,4.3l-5.1,10.4C1550.1,754,1548.2,754.6,1546.7,753.8z"/>
<path class="st11" d="M1568.7,764.7l-10.4-5.1c-1.6-0.8-2.4-2.8-1.5-4.3l5.1-10.4c0.8-1.6,2.8-2.4,4.3-1.5l10.4,5.1
	c1.6,0.8,2.4,2.8,1.5,4.3l-5.1,10.4C1572.3,764.7,1570.4,765.4,1568.7,764.7z"/>
<path class="st11" d="M1591.1,775.3l-10.4-5.1c-1.6-0.8-2.4-2.8-1.5-4.3l5.1-10.4c0.8-1.6,2.8-2.4,4.3-1.5l10.4,5.1
	c1.6,0.8,2.4,2.8,1.5,4.3l-5.1,10.4C1594.7,775.5,1592.7,776.1,1591.1,775.3z"/>
<path class="st11" d="M1614.3,786.6l-10.4-5.1c-1.6-0.8-2.4-2.8-1.5-4.3l5.1-10.4c0.8-1.6,2.8-2.4,4.3-1.5l10.4,5.1
	c1.6,0.8,2.4,2.8,1.5,4.3l-5.1,10.4C1618,786.7,1616.1,787.3,1614.3,786.6z"/>
<path class="st11" d="M1635.2,796.6l-10.4-5.1c-1.6-0.8-2.4-2.8-1.5-4.3l5.1-10.4c0.8-1.6,2.8-2.4,4.3-1.5l10.4,5.1
	c1.6,0.8,2.4,2.8,1.5,4.3l-5.1,10.4C1639,796.7,1637,797.5,1635.2,796.6z"/>
<path class="st11" d="M1657.7,807.5l-10.4-5.1c-1.6-0.8-2.4-2.8-1.5-4.3l5.1-10.4c0.8-1.6,2.8-2.4,4.3-1.5l10.4,5.1
	c1.6,0.8,2.4,2.8,1.5,4.3L1662,806C1661.2,807.8,1659.3,808.2,1657.7,807.5z"/>
<path class="st11" d="M1681,818.9l-10.4-5.1c-1.6-0.8-2.4-2.8-1.5-4.3l5.1-10.4c0.8-1.6,2.8-2.4,4.3-1.5l10.4,5.1
	c1.6,0.8,2.4,2.8,1.5,4.3l-5.1,10.4C1684.7,819,1682.5,819.6,1681,818.9z"/>
<path class="st11" d="M1701.9,828.9l-10.4-5.1c-1.6-0.8-2.4-2.8-1.5-4.3l5.1-10.4c0.8-1.6,2.8-2.4,4.3-1.5l10.4,5.1
	c1.6,0.8,2.4,2.8,1.5,4.3l-5.1,10.4C1705.5,829.1,1703.7,829.7,1701.9,828.9z"/>
<path class="st11" d="M1724.2,839.7l-10.4-5.1c-1.6-0.8-2.4-2.8-1.5-4.3l5.1-10.4c0.8-1.6,2.8-2.4,4.3-1.5l10.4,5.1
	c1.6,0.8,2.4,2.8,1.5,4.3l-5.1,10.4C1727.9,839.7,1726,840.5,1724.2,839.7z"/>
<path class="st11" d="M1746.4,850.3l-10.4-5.1c-1.6-0.8-2.4-2.8-1.5-4.3l5.1-10.4c0.8-1.6,2.8-2.4,4.3-1.5l10.4,5.1
	c1.6,0.8,2.4,2.8,1.5,4.3l-5.1,10.4C1750,850.3,1748,851.1,1746.4,850.3z"/>
<path class="st11" d="M1401.5,712.6l-15.3-7.3c-1.9-0.9-2.7-3.3-1.6-5.1l4.5-9.5c0.9-1.9,3.3-2.7,5.1-1.6l15.3,7.3
	c1.9,0.9,2.7,3.3,1.6,5.1l-4.5,9.5C1405.8,712.7,1403.4,713.4,1401.5,712.6z"/>
<path class="st11" d="M1423.1,723l-10.4-5.1c-1.6-0.8-2.4-2.8-1.5-4.3l5.1-10.4c0.8-1.6,2.8-2.4,4.3-1.5l10.4,5.1
	c1.6,0.8,2.4,2.8,1.5,4.3l-5.1,10.4C1426.9,723.3,1424.7,723.8,1423.1,723z"/>
<path class="st11" d="M1445.3,733.7l-10.4-5.1c-1.6-0.8-2.4-2.8-1.5-4.3l5.1-10.4c0.8-1.6,2.8-2.4,4.3-1.5l10.4,5.1
	c1.6,0.8,2.4,2.8,1.5,4.3l-5.1,10.4C1448.9,733.9,1447,734.6,1445.3,733.7z"/>
<path class="st11" d="M1468.6,745l-10.4-5.1c-1.6-0.8-2.4-2.8-1.5-4.3l5.1-10.4c0.8-1.6,2.8-2.4,4.3-1.5l10.4,5.1
	c1.6,0.8,2.4,2.8,1.5,4.3l-5.1,10.4C1472.3,745.1,1470.2,745.8,1468.6,745z"/>
<path class="st11" d="M1490.8,755.8l-10.4-5.1c-1.6-0.8-2.4-2.8-1.5-4.3l5.1-10.4c0.8-1.6,2.8-2.4,4.3-1.5l10.4,5.1
	c1.6,0.8,2.4,2.8,1.5,4.3l-5.1,10.4C1494.4,756,1492.4,756.5,1490.8,755.8z"/>
<path class="st11" d="M1513.2,766.5l-10.4-5.1c-1.6-0.8-2.4-2.8-1.5-4.3l5.1-10.4c0.8-1.6,2.8-2.4,4.3-1.5l10.4,5.1
	c1.6,0.8,2.4,2.8,1.5,4.3l-5.1,10.4C1516.8,766.6,1514.7,767.4,1513.2,766.5z"/>
<path class="st11" d="M1536.4,777.8l-10.4-5.1c-1.6-0.8-2.4-2.8-1.5-4.3l5.1-10.4c0.8-1.6,2.8-2.4,4.3-1.5l10.4,5.1
	c1.6,0.8,2.4,2.8,1.5,4.3l-5.1,10.4C1540.1,777.8,1538.2,778.6,1536.4,777.8z"/>
<path class="st11" d="M1558.7,788.5l-10.4-5.1c-1.6-0.8-2.4-2.8-1.5-4.3l5.1-10.4c0.8-1.6,2.8-2.4,4.3-1.5l10.4,5.1
	c1.6,0.8,2.4,2.8,1.5,4.3L1563,787C1562.2,788.5,1560.3,789.3,1558.7,788.5z"/>
<path class="st11" d="M1580.9,799.3l-10.4-5.1c-1.6-0.8-2.4-2.8-1.5-4.3l5.1-10.4c0.8-1.6,2.8-2.4,4.3-1.5l10.4,5.1
	c1.6,0.8,2.4,2.8,1.5,4.3l-5.1,10.4C1584.5,799.4,1582.6,800.1,1580.9,799.3z"/>
<path class="st11" d="M1604.2,810.6l-10.4-5.1c-1.6-0.8-2.4-2.8-1.5-4.3l5.1-10.4c0.8-1.6,2.8-2.4,4.3-1.5l10.4,5.1
	c1.6,0.8,2.4,2.8,1.5,4.3l-5.1,10.4C1608,810.8,1606,811.3,1604.2,810.6z"/>
<path class="st11" d="M1625.1,820.6l-10.4-5.1c-1.6-0.8-2.4-2.8-1.5-4.3l5.1-10.4c0.8-1.6,2.8-2.4,4.3-1.5l10.4,5.1
	c1.6,0.8,2.4,2.8,1.5,4.3l-5.1,10.4C1628.9,820.8,1626.9,821.6,1625.1,820.6z"/>
<path class="st11" d="M1647.4,831.3l-10.4-5.1c-1.6-0.8-2.4-2.8-1.5-4.3l5.1-10.4c0.8-1.6,2.8-2.4,4.3-1.5l10.4,5.1
	c1.6,0.8,2.4,2.8,1.5,4.3l-5.1,10.4C1651.2,831.4,1649,832.2,1647.4,831.3z"/>
<path class="st11" d="M1670.8,842.6l-10.4-5.1c-1.6-0.8-2.4-2.8-1.5-4.3l5.1-10.4c0.8-1.6,2.8-2.4,4.3-1.5l10.4,5.1
	c1.6,0.8,2.4,2.8,1.5,4.3l-5.1,10.4C1674.4,842.8,1672.5,843.5,1670.8,842.6z"/>
<path class="st11" d="M1691.8,852.9l-10.4-5.1c-1.6-0.8-2.4-2.8-1.5-4.3l5.1-10.4c0.8-1.6,2.8-2.4,4.3-1.5l10.4,5.1
	c1.6,0.8,2.4,2.8,1.5,4.3l-5.1,10.4C1695.5,852.9,1693.5,853.8,1691.8,852.9z"/>
<path class="st11" d="M1714.1,863.6l-10.4-5.1c-1.6-0.8-2.4-2.8-1.5-4.3l5.1-10.4c0.8-1.6,2.8-2.4,4.3-1.5l10.4,5.1
	c1.6,0.8,2.4,2.8,1.5,4.3l-5.1,10.4C1717.8,863.7,1715.9,864.4,1714.1,863.6z"/>
<path class="st11" d="M1736.3,874.4l-10.4-5.1c-1.6-0.8-2.4-2.8-1.5-4.3l5.1-10.4c0.8-1.6,2.8-2.4,4.3-1.5l10.4,5.1
	c1.6,0.8,2.4,2.8,1.5,4.3l-5.1,10.4C1740,874.5,1737.9,875.2,1736.3,874.4z"/>
<path class="st11" d="M1397.2,738l-21.2-10.2c-2.3-1.1-3.1-3.8-2.1-6.1l4.1-8.4c1.1-2.3,3.8-3.1,6.1-2.1l21.2,10.2
	c2.3,1.1,3.1,3.8,2.1,6.1l-4.1,8.4C1402.2,738.1,1399.5,738.9,1397.2,738z"/>
<path class="st11" d="M1420.6,749.2l-10.4-5.1c-1.6-0.8-2.4-2.8-1.5-4.3l5.1-10.4c0.8-1.6,2.8-2.4,4.3-1.5l10.4,5.1
	c1.6,0.8,2.4,2.8,1.5,4.3l-5.1,10.4C1424.2,749.2,1422.2,750,1420.6,749.2z"/>
<path class="st11" d="M1443.9,760.7l-10.4-5.1c-1.6-0.8-2.4-2.8-1.5-4.3l5.1-10.4c0.8-1.6,2.8-2.4,4.3-1.5l10.4,5.1
	c1.6,0.8,2.4,2.8,1.5,4.3l-5.1,10.4C1447.6,760.7,1445.7,761.2,1443.9,760.7z"/>
<path class="st11" d="M1466.1,771.2l-10.4-5.1c-1.6-0.8-2.4-2.8-1.5-4.3l5.1-10.4c0.8-1.6,2.8-2.4,4.3-1.5l10.4,5.1
	c1.6,0.8,2.4,2.8,1.5,4.3l-5.1,10.4C1469.8,771.2,1467.8,772.2,1466.1,771.2z"/>
<path class="st11" d="M1490.6,783.1l-10.4-5.1c-1.6-0.8-2.4-2.8-1.5-4.3l5.1-10.4c0.8-1.6,2.8-2.4,4.3-1.5l10.4,5.1
	c1.6,0.8,2.4,2.8,1.5,4.3l-5.1,10.4C1494.4,783.2,1492.4,783.8,1490.6,783.1z"/>
<path class="st11" d="M1514.1,794.4l-10.4-5.1c-1.6-0.8-2.4-2.8-1.5-4.3l5.1-10.4c0.8-1.6,2.8-2.4,4.3-1.5l10.4,5.1
	c1.6,0.8,2.4,2.8,1.5,4.3l-5.1,10.4C1517.8,794.6,1515.6,795.1,1514.1,794.4z"/>
<path class="st11" d="M1537.5,805.6l-10.4-5.1c-1.6-0.8-2.4-2.8-1.5-4.3l5.1-10.4c0.8-1.6,2.8-2.4,4.3-1.5l10.4,5.1
	c1.6,0.8,2.4,2.8,1.5,4.3l-5.1,10.4C1541,805.8,1539,806.6,1537.5,805.6z"/>
<path class="st11" d="M1559.5,816.3l-10.4-5.1c-1.6-0.8-2.4-2.8-1.5-4.3l5.1-10.4c0.8-1.6,2.8-2.4,4.3-1.5l10.4,5.1
	c1.6,0.8,2.4,2.8,1.5,4.3l-5.1,10.4C1563.2,816.4,1561.2,817.2,1559.5,816.3z"/>
<path class="st11" d="M1584.2,828.3l-10.4-5.1c-1.6-0.8-2.4-2.8-1.5-4.3l5.1-10.4c0.8-1.6,2.8-2.4,4.3-1.5l10.4,5.1
	c1.6,0.8,2.4,2.8,1.5,4.3l-5.1,10.4C1587.7,828.5,1585.7,829.1,1584.2,828.3z"/>
<path class="st11" d="M1611.1,841.3l-10.4-5.1c-1.6-0.8-2.4-2.8-1.5-4.3l5.1-10.4c0.8-1.6,2.8-2.4,4.3-1.5l10.4,5.1
	c1.6,0.8,2.4,2.8,1.5,4.3l-5.1,10.4C1614.5,841.3,1612.7,842,1611.1,841.3z"/>
<path class="st11" d="M1634.3,852.5l-10.4-5.1c-1.6-0.8-2.4-2.8-1.5-4.3l5.1-10.4c0.8-1.6,2.8-2.4,4.3-1.5l10.4,5.1
	c1.6,0.8,2.4,2.8,1.5,4.3l-5.1,10.4C1638,852.6,1636.2,853.3,1634.3,852.5z"/>
<path class="st11" d="M1656.7,863.3l-10.4-5.1c-1.6-0.8-2.4-2.8-1.5-4.3l5.1-10.4c0.8-1.6,2.8-2.4,4.3-1.5l10.4,5.1
	c1.6,0.8,2.4,2.8,1.5,4.3l-5.1,10.4C1660.4,863.3,1658.3,864.2,1656.7,863.3z"/>
<path class="st11" d="M1701.7,884.9l-29.4-14.3c-2.6-1.4-3.6-4.2-2.4-6.9l3.5-7.2c1.4-2.6,4.2-3.6,6.9-2.4l29.4,14.3
	c2.6,1.4,3.6,4.2,2.4,6.9l-3.5,7.2C1707.5,885.2,1704.3,886.3,1701.7,884.9z"/>
<path class="st11" d="M1725.5,896.5l-10.4-5.1c-1.6-0.8-2.4-2.8-1.5-4.3l5.1-10.4c0.8-1.6,2.8-2.4,4.3-1.5l10.4,5.1
	c1.6,0.8,2.4,2.8,1.5,4.3l-5.1,10.4C1729.2,896.6,1727.1,897.3,1725.5,896.5z"/>
<path class="st11" d="M1390.2,763.5l-26.3-12.6c-2.4-1.2-3.5-4.1-2.3-6.5l3.8-7.5c1.2-2.4,4.1-3.5,6.5-2.3l26.3,12.6
	c2.4,1.2,3.5,4.1,2.3,6.5l-3.8,7.5C1395.7,763.6,1392.8,764.7,1390.2,763.5z"/>
<path class="st11" d="M1416.4,775.9l-10.4-5.1c-1.6-0.8-2.4-2.8-1.5-4.3l5.1-10.4c0.8-1.6,2.8-2.4,4.3-1.5l10.4,5.1
	c1.6,0.8,2.4,2.8,1.5,4.3l-5.1,10.4C1419.9,775.9,1417.9,776.9,1416.4,775.9z"/>
<path class="st11" d="M1439.6,787.2l-10.4-5.1c-1.6-0.8-2.4-2.8-1.5-4.3l5.1-10.4c0.8-1.6,2.8-2.4,4.3-1.5l10.4,5.1
	c1.6,0.8,2.4,2.8,1.5,4.3l-5.1,10.4C1443.2,787.2,1441.2,788.1,1439.6,787.2z"/>
<path class="st11" d="M1461.9,798l-10.4-5.1c-1.6-0.8-2.4-2.8-1.5-4.3l5.1-10.4c0.8-1.6,2.8-2.4,4.3-1.5l10.4,5.1
	c1.6,0.8,2.4,2.8,1.5,4.3l-5.1,10.4C1465.4,798.1,1463.5,798.7,1461.9,798z"/>
<path class="st11" d="M1486.5,809.8l-10.4-5.1c-1.6-0.8-2.4-2.8-1.5-4.3l5.1-10.4c0.8-1.6,2.8-2.4,4.3-1.5l10.4,5.1
	c1.6,0.8,2.4,2.8,1.5,4.3l-5.1,10.4C1490.1,810,1487.9,810.8,1486.5,809.8z"/>
<path class="st11" d="M1509.7,821.2l-10.4-5.1c-1.6-0.8-2.4-2.8-1.5-4.3l5.1-10.4c0.8-1.6,2.8-2.4,4.3-1.5l10.4,5.1
	c1.6,0.8,2.4,2.8,1.5,4.3l-5.1,10.4C1513.3,821.3,1511.4,822,1509.7,821.2z"/>
<path class="st11" d="M1533,832.4l-10.4-5.1c-1.6-0.8-2.4-2.8-1.5-4.3l5.1-10.4c0.8-1.6,2.8-2.4,4.3-1.5l10.4,5.1
	c1.6,0.8,2.4,2.8,1.5,4.3l-5.1,10.4C1536.7,832.5,1534.8,833.3,1533,832.4z"/>
<path class="st11" d="M1555.3,843.2l-10.4-5.1c-1.6-0.8-2.4-2.8-1.5-4.3l5.1-10.4c0.8-1.6,2.8-2.4,4.3-1.5l10.4,5.1
	c1.6,0.8,2.4,2.8,1.5,4.3l-5.1,10.4C1559,843.3,1557.1,844,1555.3,843.2z"/>
<path class="st11" d="M1579.9,855.1l-10.4-5.1c-1.6-0.8-2.4-2.8-1.5-4.3l5.1-10.4c0.8-1.6,2.8-2.4,4.3-1.5l10.4,5.1
	c1.6,0.8,2.4,2.8,1.5,4.3l-5.1,10.4C1583.4,855.1,1581.5,855.7,1579.9,855.1z"/>
<path class="st11" d="M1603.3,866.3l-10.4-5.1c-1.6-0.8-2.4-2.8-1.5-4.3l5.1-10.4c0.8-1.6,2.8-2.4,4.3-1.5l10.4,5.1
	c1.6,0.8,2.4,2.8,1.5,4.3l-5.1,10.4C1606.9,866.4,1604.9,867.1,1603.3,866.3z"/>
<path class="st11" d="M1625.5,876.9l-10.4-5.1c-1.6-0.8-2.4-2.8-1.5-4.3l5.1-10.4c0.8-1.6,2.8-2.4,4.3-1.5l10.4,5.1
	c1.6,0.8,2.4,2.8,1.5,4.3l-5.1,10.4C1629.1,877.1,1627.1,877.9,1625.5,876.9z"/>
<path class="st11" d="M1650.1,888.8l-10.4-5.1c-1.6-0.8-2.4-2.8-1.5-4.3l5.1-10.4c0.8-1.6,2.8-2.4,4.3-1.5l10.4,5.1
	c1.6,0.8,2.4,2.8,1.5,4.3l-5.1,10.4C1653.7,889,1651.6,889.6,1650.1,888.8z"/>
<path class="st11" d="M1690.5,908.5l-26.3-12.6c-2.4-1.2-3.5-4.1-2.3-6.5l3.8-7.5c1.2-2.4,4.1-3.5,6.5-2.3l26.3,12.6
	c2.4,1.2,3.5,4.1,2.3,6.5l-3.8,7.5C1696,908.7,1693,909.7,1690.5,908.5z"/>
<path class="st11" d="M1713.6,918.2l-10.4-5.1c-1.6-0.8-2.4-2.8-1.5-4.3l5.1-10.4c0.8-1.6,2.8-2.4,4.3-1.5l10.4,5.1
	c1.6,0.8,2.4,2.8,1.5,4.3l-5.1,10.4C1717.2,918.4,1715.3,919,1713.6,918.2z"/>
<path class="st11" d="M1370.6,779.8l-15.3-7.3c-1.9-0.9-2.7-3.3-1.6-5.1l4.5-9.5c0.9-1.9,3.3-2.7,5.1-1.6l15.3,7.3
	c1.9,0.9,2.7,3.3,1.6,5.1l-4.5,9.5C1374.8,780,1372.4,780.8,1370.6,779.8z"/>
<path class="st11" d="M1392.2,790.2l-10.4-5.1c-1.6-0.8-2.4-2.8-1.5-4.3l5.1-10.4c0.8-1.6,2.8-2.4,4.3-1.5l10.4,5.1
	c1.6,0.8,2.4,2.8,1.5,4.3l-5.1,10.4C1395.7,790.4,1393.7,790.9,1392.2,790.2z"/>
<path class="st11" d="M1414.2,801l-10.4-5.1c-1.6-0.8-2.4-2.8-1.5-4.3l5.1-10.4c0.8-1.6,2.8-2.4,4.3-1.5l10.4,5.1
	c1.6,0.8,2.4,2.8,1.5,4.3l-5.1,10.4C1417.9,801,1415.9,801.7,1414.2,801z"/>
<path class="st11" d="M1437.7,812.3l-10.4-5.1c-1.6-0.8-2.4-2.8-1.5-4.3l5.1-10.4c0.8-1.6,2.8-2.4,4.3-1.5l10.4,5.1
	c1.6,0.8,2.4,2.8,1.5,4.3l-5.1,10.4C1441.2,812.4,1439.3,813,1437.7,812.3z"/>
<path class="st11" d="M1459.9,822.9l-10.4-5.1c-1.6-0.8-2.4-2.8-1.5-4.3l5.1-10.4c0.8-1.6,2.8-2.4,4.3-1.5l10.4,5.1
	c1.6,0.8,2.4,2.8,1.5,4.3l-5.1,10.4C1463.5,822.9,1461.5,823.9,1459.9,822.9z"/>
<path class="st11" d="M1482.1,833.7l-10.4-5.1c-1.6-0.8-2.4-2.8-1.5-4.3l5.1-10.4c0.8-1.6,2.8-2.4,4.3-1.5l10.4,5.1
	c1.6,0.8,2.4,2.8,1.5,4.3l-5.1,10.4C1485.7,833.9,1483.8,834.5,1482.1,833.7z"/>
<path class="st11" d="M1505.4,844.9l-10.4-5.1c-1.6-0.8-2.4-2.8-1.5-4.3l5.1-10.4c0.8-1.6,2.8-2.4,4.3-1.5l10.4,5.1
	c1.6,0.8,2.4,2.8,1.5,4.3l-5.1,10.4C1509.1,845.2,1507.1,845.9,1505.4,844.9z"/>
<path class="st11" d="M1527.6,855.7l-10.4-5.1c-1.6-0.8-2.4-2.8-1.5-4.3l5.1-10.4c0.8-1.6,2.8-2.4,4.3-1.5l10.4,5.1
	c1.6,0.8,2.4,2.8,1.5,4.3l-5.1,10.4C1531.2,855.7,1529.3,856.5,1527.6,855.7z"/>
<path class="st11" d="M1549.8,866.4l-10.4-5.1c-1.6-0.8-2.4-2.8-1.5-4.3l5.1-10.4c0.8-1.6,2.8-2.4,4.3-1.5l10.4,5.1
	c1.6,0.8,2.4,2.8,1.5,4.3l-5.1,10.4C1553.6,866.7,1551.4,867.2,1549.8,866.4z"/>
<path class="st11" d="M1573.3,877.7l-10.4-5.1c-1.6-0.8-2.4-2.8-1.5-4.3l5.1-10.4c0.8-1.6,2.8-2.4,4.3-1.5l10.4,5.1
	c1.6,0.8,2.4,2.8,1.5,4.3l-5.1,10.4C1576.8,877.9,1574.9,878.4,1573.3,877.7z"/>
<path class="st11" d="M1594.2,887.9l-10.4-5.1c-1.6-0.8-2.4-2.8-1.5-4.3l5.1-10.4c0.8-1.6,2.8-2.4,4.3-1.5l10.4,5.1
	c1.6,0.8,2.4,2.8,1.5,4.3l-5.1,10.4C1597.9,887.9,1595.9,888.5,1594.2,887.9z"/>
<path class="st11" d="M1616.5,898.7l-10.4-5.1c-1.6-0.8-2.4-2.8-1.5-4.3l5.1-10.4c0.8-1.6,2.8-2.4,4.3-1.5l10.4,5.1
	c1.6,0.8,2.4,2.8,1.5,4.3l-5.1,10.4C1620.3,898.9,1618.1,899.5,1616.5,898.7z"/>
<path class="st11" d="M1639.9,910l-10.4-5.1c-1.6-0.8-2.4-2.8-1.5-4.3l5.1-10.4c0.8-1.6,2.8-2.4,4.3-1.5l10.4,5.1
	c1.6,0.8,2.4,2.8,1.5,4.3l-5.1,10.4C1643.5,910.1,1641.6,910.7,1639.9,910z"/>
<path class="st11" d="M1660.8,920l-10.4-5.1c-1.6-0.8-2.4-2.8-1.5-4.3l5.1-10.4c0.8-1.6,2.8-2.4,4.3-1.5l10.4,5.1
	c1.6,0.8,2.4,2.8,1.5,4.3l-5.1,10.4C1664.5,920.2,1662.4,920.8,1660.8,920z"/>
<path class="st11" d="M1682.9,930.8l-10.4-5.1c-1.6-0.8-2.4-2.8-1.5-4.3l5.1-10.4c0.8-1.6,2.8-2.4,4.3-1.5l10.4,5.1
	c1.6,0.8,2.4,2.8,1.5,4.3l-5.1,10.4C1686.7,930.8,1684.8,931.6,1682.9,930.8z"/>
<path class="st11" d="M1705.3,941.5l-10.4-5.1c-1.6-0.8-2.4-2.8-1.5-4.3l5.1-10.4c0.8-1.6,2.8-2.4,4.3-1.5l10.4,5.1
	c1.6,0.8,2.4,2.8,1.5,4.3l-5.1,10.4C1709,941.5,1706.8,942.3,1705.3,941.5z"/>
<path class="st11" d="M1359.9,802.1l-15.3-7.3c-1.9-0.9-2.7-3.3-1.6-5.1l4.5-9.5c0.9-1.9,3.3-2.7,5.1-1.6l15.3,7.3
	c1.9,0.9,2.7,3.3,1.6,5.1l-4.5,9.5C1364,802.1,1361.7,803.1,1359.9,802.1z"/>
<path class="st11" d="M1384.8,814l-10.4-5.1c-1.6-0.8-2.4-2.8-1.5-4.3l5.1-10.4c0.8-1.6,2.8-2.4,4.3-1.5l10.4,5.1
	c1.6,0.8,2.4,2.8,1.5,4.3l-5.1,10.4C1388.4,814.2,1386.4,814.8,1384.8,814z"/>
<path class="st11" d="M1407.2,824.8l-10.4-5.1c-1.6-0.8-2.4-2.8-1.5-4.3l5.1-10.4c0.8-1.6,2.8-2.4,4.3-1.5l10.4,5.1
	c1.6,0.8,2.4,2.8,1.5,4.3l-5.1,10.4C1410.8,825.1,1408.7,825.8,1407.2,824.8z"/>
<path class="st11" d="M1525.8,882.1L1424.2,833c-2.6-1.4-3.8-4.3-2.4-7l3.3-7c1.4-2.6,4.3-3.8,7-2.4l101.7,49.1
	c2.6,1.4,3.8,4.3,2.4,7l-3.3,7C1531.5,882.3,1528.2,883.4,1525.8,882.1z"/>
<path class="st11" d="M1551.3,893l-10.4-5.1c-1.6-0.8-2.4-2.8-1.5-4.3l5.1-10.4c0.8-1.6,2.8-2.4,4.3-1.5l10.4,5.1
	c1.6,0.8,2.4,2.8,1.5,4.3l-5.1,10.4C1554.9,893.1,1553,893.9,1551.3,893z"/>
<path class="st11" d="M1576,904.9l-10.4-5.1c-1.6-0.8-2.4-2.8-1.5-4.3l5.1-10.4c0.8-1.6,2.8-2.4,4.3-1.5l10.4,5.1
	c1.6,0.8,2.4,2.8,1.5,4.3l-5.1,10.4C1579.5,905,1577.6,905.7,1576,904.9z"/>
<path class="st11" d="M1598.1,915.8l-10.4-5.1c-1.6-0.8-2.4-2.8-1.5-4.3l5.1-10.4c0.8-1.6,2.8-2.4,4.3-1.5l10.4,5.1
	c1.6,0.8,2.4,2.8,1.5,4.3l-5.1,10.4C1601.8,915.8,1599.6,916.5,1598.1,915.8z"/>
<path class="st11" d="M1621.5,927.1l-10.4-5.1c-1.6-0.8-2.4-2.8-1.5-4.3l5.1-10.4c0.8-1.6,2.8-2.4,4.3-1.5l10.4,5.1
	c1.6,0.8,2.4,2.8,1.5,4.3l-5.1,10.4C1625,927.1,1623.1,927.7,1621.5,927.1z"/>
<path class="st11" d="M1646.1,938.9l-10.4-5.1c-1.6-0.8-2.4-2.8-1.5-4.3l5.1-10.4c0.8-1.6,2.8-2.4,4.3-1.5l10.4,5.1
	c1.6,0.8,2.4,2.8,1.5,4.3l-5.1,10.4C1649.7,938.9,1647.7,939.6,1646.1,938.9z"/>
<path class="st11" d="M1671.7,951.3l-10.4-5.1c-1.6-0.8-2.4-2.8-1.5-4.3l5.1-10.4c0.8-1.6,2.8-2.4,4.3-1.5l10.4,5.1
	c1.6,0.8,2.4,2.8,1.5,4.3l-5.1,10.4C1675.5,951.5,1673.3,952,1671.7,951.3z"/>
<path class="st11" d="M1695.2,962.5l-10.4-5.1c-1.6-0.8-2.4-2.8-1.5-4.3l5.1-10.4c0.8-1.6,2.8-2.4,4.3-1.5l10.4,5.1
	c1.6,0.8,2.4,2.8,1.5,4.3l-5.1,10.4C1698.7,962.7,1696.8,963.3,1695.2,962.5z"/>
<path class="st10" d="M1707.5,962.7l56.6-116.8c1.5-3.1,5.4-4.5,8.8-3l24.6,11.9c3.1,1.5,4.5,5.4,3,8.8l-56.6,116.8
	c-1.5,3.1-5.4,4.5-8.8,3l-24.6-11.9C1707.1,969.8,1705.9,966,1707.5,962.7z"/>
<path class="st10" d="M1298.4,765.3l56.6-116.8c1.5-3.1,5.4-4.5,8.8-3l24.6,11.9c3.1,1.5,4.5,5.4,3,8.8l-56.7,116.7
	c-1.5,3.1-5.4,4.5-8.8,3l-24.6-11.9C1298.2,772.2,1296.9,768.4,1298.4,765.3z"/>
<path class="st2" d="M160.2,804.2l-2.6-1.9c-3.2-2.5-3.8-7.1-1.4-10.1l34-44.5c2.5-3.2,7.1-3.8,10.1-1.4l2.6,1.9
	c3.2,2.5,3.8,7.1,1.4,10.1l-34,44.5C168,806,163.3,806.7,160.2,804.2z"/>
<path class="st2" d="M257.1,979.8l-14,7.4c-6.5,3.5-14.6,0.8-18.1-5.7l-87.5-165.9c-3.5-6.5-0.8-14.6,5.7-18.1l14-7.4
	c6.5-3.5,14.6-0.8,18.1,5.7l87.5,165.9C266.1,968.3,263.6,976.4,257.1,979.8z"/>
<rect x="142.1" y="699.1" transform="matrix(0.8845 -0.4665 0.4665 0.8845 -380.4492 175.5843)" class="st12" width="44.7" height="314.3"/>
<rect x="109.1" y="704.1" transform="matrix(0.8845 -0.4665 0.4665 0.8845 -322.6197 139.5414)" class="st12" width="22.9" height="34.6"/>
<polygon class="st12" points="122.6,700.8 138.8,731.5 184.3,707.5 178.7,696.9 "/>
<polygon class="st13" points="160.5,799.4 144.4,768.9 201,739 206.7,749.6 "/>
<path class="st13" d="M118.6,787.9l28.6,54.3c1.3,2.2,0.4,4.9-1.9,6.1l-15.8,8.3c-2.2,1.3-4.9,0.4-6.1-1.9l-28.6-54.3
	c-1.3-2.2-0.4-4.9,1.9-6.1l15.8-8.3C114.5,784.6,117.3,785.5,118.6,787.9z"/>
<path class="st12" d="M125.6,733.4c-5.3-10-27.4-8.6-49.3,2.9c-22,11.7-35.6,29-30.3,38.9"/>
<path class="st13" d="M64.9,811.1c5.3,10,20.3,12.4,33.5,5.4c13.3-6.9,19.7-20.7,14.3-30.7"/>
<path class="st13" d="M155,768.7l28.6,54.3c1.3,2.2,0.4,4.9-1.9,6.1l-15.8,8.3c-2.2,1.3-4.9,0.4-6.1-1.9L131,781.2
	c-1.3-2.2-0.4-4.9,1.9-6.1l15.8-8.3C150.9,765.5,153.7,766.4,155,768.7z"/>
<rect x="950.7" y="958.2" transform="matrix(0.9526 -0.3042 0.3042 0.9526 -255.2419 346.6695)" class="st14" width="68.6" height="68.6"/>
<rect x="975.9" y="840.9" transform="matrix(0.2789 -0.9603 0.9603 0.2789 -112.0169 1601.2426)" class="st15" width="68.6" height="68.6"/>
<rect x="1038.7" y="862.8" transform="matrix(0.9526 -0.3042 0.3042 0.9526 -222.0455 368.9196)" class="st14" width="68.6" height="68.6"/>
<rect x="920.5" y="733.3" transform="matrix(0.9526 -0.3042 0.3042 0.9526 -188.2577 326.8293)" class="st14" width="68.6" height="68.6"/>
<rect x="923" y="747.3" transform="matrix(0.9526 -0.3042 0.3042 0.9526 -182.7565 323.4415)" width="47.4" height="1.9"/>
<rect x="926.4" y="757.2" transform="matrix(0.9526 -0.3042 0.3042 0.9526 -185.8315 323.7714)" width="39.6" height="2.2"/>
<rect x="1042" y="874" transform="matrix(0.9526 -0.3042 0.3042 0.9526 -215.6521 365.6443)" width="47.4" height="1.9"/>
<rect x="1045.2" y="882.9" transform="matrix(0.9526 -0.3042 0.3042 0.9526 -218.2081 367.04)" width="47.4" height="1.9"/>
<rect x="1047.8" y="892" transform="matrix(0.9526 -0.3042 0.3042 0.9526 -220.8565 368.2702)" width="47.4" height="1.9"/>
<rect x="954.2" y="969.6" transform="matrix(0.9526 -0.3042 0.3042 0.9526 -248.8939 343.4668)" width="47.4" height="1.9"/>
<path class="st2" d="M451.5,788.2l-126.6-32c-21.3-5.4-34.5-27.4-29-48.6l46-181.7c5.4-21.3,27.4-34.5,48.6-29l126.6,32
	c21.3,5.4,34.5,27.4,29,48.6l-46,181.6C494.7,780.5,472.7,793.6,451.5,788.2z"/>
<g>
	<g>
		<g>
			<g>
				<g>
					<g>
						<defs>
							<path id="SVGID_1_" d="M622.9,855.3l-331.5-83.8c-5.8-1.5-9.6-7.6-8.1-13.5L377,387.5c1.5-5.8,7.6-9.6,13.5-8.1L722,463.2
								c5.8,1.5,9.6,7.6,8.1,13.5l-93.6,370.6C634.9,853.2,628.8,856.8,622.9,855.3z"/>
						</defs>
						<clipPath id="SVGID_00000031892780725271769270000004050464767910646949_">
							<use xlink:href="#SVGID_1_"  style="overflow:visible;"/>
						</clipPath>
						<path style="clip-path:url(#SVGID_00000031892780725271769270000004050464767910646949_);fill:#FCC3F1;" d="M429,774.1
							l-146.4-37c-27-6.8-43.2-34.3-36.5-61.3l41.3-163.3c6.8-27,34.3-43.2,61.3-36.5L495,513.2c27,6.8,43.2,34.3,36.5,61.3
							l-41.3,163.4C483.6,764.7,455.9,781.1,429,774.1z"/>
					</g>
				</g>
			</g>
		</g>
	</g>
</g>
<rect x="313.6" y="635.3" transform="matrix(0.2451 -0.9695 0.9695 0.2451 -283.5923 920.2242)" class="st17" width="271.1" height="13.9"/>
<polygon class="st18" points="380.6,820.8 380.2,828.5 372.5,829.7 365.3,823.2 365.7,815.6 373.4,814.3 "/>
<circle class="st19" cx="357.8" cy="840.1" r="15.4"/>
<circle class="st20" cx="161.8" cy="978.1" r="11.1"/>
<circle class="st19" cx="300.3" cy="811.7" r="15.4"/>
<circle class="st21" cx="638.5" cy="829.6" r="11.8"/>
<circle class="st21" cx="617.2" cy="840.1" r="11.8"/>
<circle class="st21" cx="600.6" cy="858.2" r="11.8"/>
<circle class="st21" cx="580.3" cy="870.6" r="11.8"/>
<circle class="st21" cx="570.5" cy="891.7" r="11.8"/>
<circle class="st21" cx="559.4" cy="912.5" r="11.8"/>
<circle class="st21" cx="540.4" cy="926.8" r="11.8"/>
<circle class="st21" cx="530.3" cy="947" r="11.8"/>
<circle class="st21" cx="507.7" cy="955.9" r="11.8"/>
<circle class="st21" cx="492.7" cy="973.1" r="11.8"/>
<circle class="st21" cx="477.7" cy="992.6" r="11.8"/>
<circle class="st21" cx="459" cy="1007" r="11.8"/>
<circle class="st21" cx="451.3" cy="1028.8" r="11.8"/>
<circle class="st21" cx="442" cy="1050.8" r="11.8"/>
<circle class="st21" cx="424.5" cy="1066.8" r="11.8"/>
<circle class="st21" cx="408.8" cy="1085.2" r="11.8"/>
<circle class="st21" cx="689.5" cy="868.9" r="11.8"/>
<circle class="st21" cx="678.8" cy="847.6" r="11.8"/>
<circle class="st21" cx="660.9" cy="830.8" r="11.8"/>
<circle class="st18" cx="299.9" cy="790" r="6.5"/>
<circle class="st22" cx="550.3" cy="734.1" r="12.8"/>
<rect x="850.5" y="871.8" transform="matrix(0.9526 -0.3042 0.3042 0.9526 -233.7078 312.0977)" class="st14" width="68.6" height="68.6"/>
<path class="st23" d="M1409,627.6l-9.9,20.3c-1.5,3.1-0.3,6.9,2.8,8.4l8,3.9c3.1,1.5,6.9,0.3,8.4-2.8l9.9-20.3"/>
<path class="st4" d="M1404.9,650l8,3.9c3.1,1.5,6.9,0.3,8.4-2.8l9.9-20.3c1.5-3.1,0.3-6.9-2.8-8.4l-8-3.9c-3.1-1.5-6.9-0.3-8.4,2.8
	l-9.9,20.3C1400.6,644.7,1401.8,648.5,1404.9,650z"/>
<path class="st23" d="M1757.6,791.6l-9.9,20.3c-1.5,3.1-0.3,6.9,2.8,8.4l8,3.9c3.1,1.5,6.9,0.3,8.4-2.8l9.9-20.3"/>
<path class="st4" d="M1753.6,814.1l8,3.9c3.1,1.5,6.9,0.3,8.4-2.8l9.9-20.3c1.5-3.1,0.3-6.9-2.8-8.4l-8-3.9
	c-3.1-1.5-6.9-0.3-8.4,2.8l-9.9,20.3C1749.2,808.8,1750.4,812.5,1753.6,814.1z"/>
</svg>
